<?xml version="1.0" encoding="UTF-8"?><svg id="Layer_2" xmlns="http://www.w3.org/2000/svg" viewBox="0 0 1470.66 816.08"><defs><style>.cls-1{fill:#fff;}.cls-2{fill:#ff7a00;}</style></defs><g id="Layer_1-2"><rect class="cls-2" width="1470.66" height="816.08"/><path class="cls-1" d="m214.71,307.3c48.81,0,88.05,39.24,88.05,88.05s-39.24,88.05-88.05,88.05-88.05-39.24-88.05-88.05,39.24-88.05,88.05-88.05Zm0,117.24c16.75,0,29.19-13.4,29.19-29.19,0-16.75-12.44-29.19-29.19-29.19s-29.19,12.44-29.19,29.19c0,15.79,12.92,29.19,29.19,29.19Zm15.31,123.94h61.25v114.84h95.7v61.25h-156.95v-176.09Zm153.12,84.22h-61.25v-321.56h61.25v321.56Z"/><path class="cls-1" d="m421.43,479.56h57.42v-34.45h54.07v34.45h60.77v-168.44h57.42v76.56h19.14v-76.56h57.42v398.12h-57.42v-260.31h-19.14v260.31h-57.42v-174.18h-172.27v-55.51Zm156.95-75.61v60.29c-36.37-8.61-59.81-36.85-72.73-57.42-11.01,20.58-36.37,48.81-72.73,57.42v-60.29c27.75-14.83,44.02-44.02,45.94-85.18l.48-7.66h52.64l.48,7.66c1.91,41.15,19.62,70.34,45.94,85.18Z"/><path class="cls-1" d="m750.64,330.27h57.42v-34.45h68.91v34.45h53.59v61.25h-10.05c1.44,6.22,2.39,12.44,2.39,19.14,0,44.5-35.89,80.39-80.39,80.39s-80.39-35.89-80.39-80.39c0-6.7.96-12.92,2.39-19.14h-13.88v-61.25Zm91.88,102.4c12.44,0,22.01-9.57,22.01-22.01s-9.57-22.01-22.01-22.01-22.01,9.57-22.01,22.01,9.57,22.01,22.01,22.01Zm168.44-75.61h45.94v61.25h-45.94v290.94h-61.25v-398.12h61.25v45.94Z"/><path class="cls-1" d="m1079.86,312.56l146.43-.48-.96,101.92c-.96,86.61-85.18,131.11-144.99,134.46l.48-62.21c23.45-4.79,83.26-16.75,83.26-85.65v-28.23l-84.22.48v-60.29Zm245,396.69h-61.25v-398.12h61.25v398.12Z"/><path class="cls-1" d="m539.47,259.84V117.54h26.17v9.81h.41c3.27-7.16,11.04-12.27,22.29-12.27,24.13,0,37.82,23.31,37.82,49.07s-14.52,49.07-37.82,49.07c-11.65,0-17.99-6.34-22.29-12.27h-.41v58.88h-26.17Zm43.14-71.97c12.27,0,17.38-10.63,17.38-23.72,0-14.11-5.11-23.72-17.38-23.72-9.2,0-16.76,8.59-16.76,23.72,0,14.11,7.56,23.72,16.76,23.72Z"/><path class="cls-1" d="m638.42,117.54h26.17v7.77h.41c3.88-7.36,9-10.22,18.2-10.22,17.79,0,32.3,17.99,33.33,46.62h-26.17c-1.02-15.74-5.52-22.08-12.88-22.08-11.25,0-12.88,9.61-12.88,24.53v46.62h-26.17v-93.23Z"/><path class="cls-1" d="m740.65,66.84c9.41,0,17.17,7.77,17.17,17.17s-7.77,17.17-17.17,17.17-17.17-7.77-17.17-17.17,7.77-17.17,17.17-17.17Zm-13.08,143.93v-93.23h26.17v93.23h-26.17Z"/><path class="cls-1" d="m803.62,140.85v69.92h-26.17v-93.23h78.51v93.23h-26.17v-69.92h-26.17Z"/><path class="cls-1" d="m937.74,117.54v23.72h-21.26v69.51h-26.17v-69.51h-21.26v-23.72h21.26v-55.61h26.17v55.61h21.26Z"/></g></svg>